<svg xmlns="http://www.w3.org/2000/svg" xmlns:xlink="http://www.w3.org/1999/xlink" width="242" zoomAndPan="magnify" viewBox="0 0 181.5 61.499998" height="82" preserveAspectRatio="xMidYMid meet" version="1.0"><defs><g/><clipPath id="bbbde2923c"><path d="M 72 8.792969 L 167 8.792969 L 167 52.210938 L 72 52.210938 Z M 72 8.792969 " clip-rule="nonzero"/></clipPath><clipPath id="f8b93c37f6"><path d="M 103.824219 8.792969 L 161.042969 8.792969 C 163.175781 8.792969 165.144531 9.9375 166.199219 11.789062 C 167.257812 13.640625 167.238281 15.917969 166.152344 17.753906 L 151.054688 43.25 C 147.761719 48.804688 141.785156 52.210938 135.332031 52.210938 L 78.109375 52.210938 C 75.976562 52.210938 74.007812 51.066406 72.953125 49.214844 C 71.894531 47.363281 71.914062 45.085938 73 43.25 L 88.101562 17.753906 C 91.390625 12.199219 97.367188 8.792969 103.824219 8.792969 Z M 103.824219 8.792969 " clip-rule="nonzero"/></clipPath></defs><g clip-path="url(#bbbde2923c)"><g clip-path="url(#f8b93c37f6)"><path fill="#000000" d="M 67.695312 8.792969 L 171.457031 8.792969 L 171.457031 52.210938 L 67.695312 52.210938 Z M 67.695312 8.792969 " fill-opacity="1" fill-rule="nonzero"/></g></g><g fill="#000000" fill-opacity="1"><g transform="translate(9.546019, 44.897914)"><g><path d="M 14 -5.453125 L 15.25 -1.0625 C 13.707031 -0.15625 11.953125 0.296875 9.984375 0.296875 C 8.035156 0.296875 6.457031 -0.242188 5.25 -1.328125 C 4.039062 -2.421875 3.4375 -3.960938 3.4375 -5.953125 L 3.4375 -14.65625 L 0.6875 -14.65625 L 0.6875 -18.796875 L 3.4375 -18.796875 L 3.4375 -24.28125 L 9.71875 -24.28125 L 9.71875 -18.828125 L 14.875 -18.828125 L 14.875 -14.65625 L 9.71875 -14.65625 L 9.71875 -6.953125 C 9.71875 -6.191406 9.867188 -5.632812 10.171875 -5.28125 C 10.484375 -4.925781 10.941406 -4.765625 11.546875 -4.796875 C 12.140625 -4.796875 12.957031 -5.015625 14 -5.453125 Z M 14 -5.453125 "/></g></g></g><g fill="#000000" fill-opacity="1"><g transform="translate(23.367305, 44.897914)"><g><path d="M 11.375 -20 C 14.070312 -20 16.171875 -19.367188 17.671875 -18.109375 C 19.171875 -16.859375 19.9375 -15.113281 19.96875 -12.875 L 19.96875 0 L 13.78125 0 L 13.78125 -2.265625 C 12.488281 -0.554688 10.476562 0.296875 7.75 0.296875 C 5.675781 0.296875 4.03125 -0.273438 2.8125 -1.421875 C 1.59375 -2.566406 0.984375 -4.054688 0.984375 -5.890625 C 0.984375 -7.765625 1.632812 -9.21875 2.9375 -10.25 C 4.25 -11.289062 6.125 -11.820312 8.5625 -11.84375 L 13.75 -11.84375 L 13.75 -12.140625 C 13.75 -13.109375 13.425781 -13.867188 12.78125 -14.421875 C 12.132812 -14.972656 11.175781 -15.25 9.90625 -15.25 C 8.125 -15.25 6.160156 -14.695312 4.015625 -13.59375 L 2.234375 -17.765625 C 5.421875 -19.253906 8.46875 -20 11.375 -20 Z M 9.6875 -3.984375 C 10.6875 -3.984375 11.5625 -4.234375 12.3125 -4.734375 C 13.070312 -5.234375 13.550781 -5.882812 13.75 -6.6875 L 13.75 -8.453125 L 9.765625 -8.453125 C 7.859375 -8.453125 6.90625 -7.742188 6.90625 -6.328125 C 6.90625 -5.597656 7.148438 -5.023438 7.640625 -4.609375 C 8.128906 -4.191406 8.8125 -3.984375 9.6875 -3.984375 Z M 9.6875 -3.984375 "/></g></g></g><g fill="#000000" fill-opacity="1"><g transform="translate(43.221789, 44.897914)"><g><path d="M 9.03125 0 L 2.703125 0 L 2.703125 -27.125 L 9.03125 -27.125 Z M 9.03125 0 "/></g></g></g><g fill="#000000" fill-opacity="1"><g transform="translate(52.874693, 44.897914)"><g><path d="M 11.15625 -7.609375 L 9.03125 -5.375 L 9.03125 0 L 2.703125 0 L 2.703125 -27.125 L 9.03125 -27.125 L 9.03125 -12.796875 L 15.53125 -19.703125 L 22.703125 -19.703125 L 15.46875 -12.140625 L 22.921875 0 L 15.421875 0 Z M 11.15625 -7.609375 "/></g></g></g><g fill="#ffffff" fill-opacity="1"><g transform="translate(79.492015, 44.903757)"><g><path d="M 2.5625 -25.59375 L 13.703125 -25.59375 C 16.972656 -25.59375 19.507812 -24.816406 21.3125 -23.265625 C 23.113281 -21.722656 24.015625 -19.523438 24.015625 -16.671875 C 24.015625 -13.671875 23.113281 -11.34375 21.3125 -9.6875 C 19.507812 -8.03125 16.972656 -7.203125 13.703125 -7.203125 L 9.0625 -7.203125 L 9.0625 0 L 2.5625 0 Z M 9.0625 -20.46875 L 9.0625 -12.328125 L 13.375 -12.328125 C 14.8125 -12.328125 15.921875 -12.675781 16.703125 -13.375 C 17.484375 -14.082031 17.875 -15.109375 17.875 -16.453125 C 17.875 -17.765625 17.484375 -18.757812 16.703125 -19.4375 C 15.921875 -20.125 14.8125 -20.46875 13.375 -20.46875 Z M 9.0625 -20.46875 "/></g></g></g><g fill="#ffffff" fill-opacity="1"><g transform="translate(102.271679, 44.903757)"><g><path d="M 2.5625 -25.59375 L 13.5625 -25.59375 C 17.582031 -25.59375 20.851562 -24.410156 23.375 -22.046875 C 25.90625 -19.679688 27.171875 -16.597656 27.171875 -12.796875 C 27.171875 -9.015625 25.890625 -5.9375 23.328125 -3.5625 C 20.765625 -1.1875 17.425781 0 13.3125 0 L 2.5625 0 Z M 9.0625 -20.40625 L 9.0625 -5.1875 L 13.703125 -5.1875 C 15.703125 -5.1875 17.34375 -5.882812 18.625 -7.28125 C 19.90625 -8.6875 20.546875 -10.507812 20.546875 -12.75 C 20.546875 -15 19.875 -16.835938 18.53125 -18.265625 C 17.195312 -19.691406 15.492188 -20.40625 13.421875 -20.40625 Z M 9.0625 -20.40625 "/></g></g></g><g fill="#ffffff" fill-opacity="1"><g transform="translate(128.232483, 44.903757)"><g><path d="M 21.53125 -20.46875 L 9.0625 -20.46875 L 9.0625 -14.546875 L 20.546875 -14.546875 L 20.546875 -9.4375 L 9.0625 -9.4375 L 9.0625 0 L 2.5625 0 L 2.5625 -25.59375 L 21.53125 -25.59375 Z M 21.53125 -20.46875 "/></g></g></g></svg>