<svg xmlns="http://www.w3.org/2000/svg" xmlns:xlink="http://www.w3.org/1999/xlink" width="95" zoomAndPan="magnify" viewBox="0 0 71.25 61.499996" height="82" preserveAspectRatio="xMidYMid meet" version="1.0"><defs><g/><clipPath id="20761442c8"><path d="M 20.6875 8.84375 L 65.785156 8.84375 L 65.785156 52.160156 L 20.6875 52.160156 Z M 20.6875 8.84375 " clip-rule="nonzero"/></clipPath><clipPath id="8b738d01d4"><path d="M 52.550781 8.84375 L 59.570312 8.84375 C 61.695312 8.84375 63.660156 9.984375 64.714844 11.835938 C 65.769531 13.683594 65.75 15.953125 64.664062 17.785156 L 49.601562 43.21875 C 46.320312 48.761719 40.359375 52.160156 33.917969 52.160156 L 26.902344 52.160156 C 24.773438 52.160156 22.808594 51.019531 21.753906 49.171875 C 20.703125 47.324219 20.722656 45.050781 21.804688 43.21875 L 36.867188 17.785156 C 40.148438 12.242188 46.113281 8.84375 52.550781 8.84375 Z M 52.550781 8.84375 " clip-rule="nonzero"/></clipPath></defs><g clip-path="url(#20761442c8)"><g clip-path="url(#8b738d01d4)"><path fill="#8b5cf6" d="M 16.511719 8.84375 L 69.960938 8.84375 L 69.960938 52.160156 L 16.511719 52.160156 Z M 16.511719 8.84375 " fill-opacity="1" fill-rule="nonzero"/></g></g><g fill="#8b5cf6" fill-opacity="1"><g transform="translate(8.712551, 44.864363)"><g><path d="M 22.078125 -20.328125 L 14.375 -20.328125 L 14.375 0 L 7.875 0 L 7.875 -20.328125 L 0.25 -20.328125 L 0.25 -25.578125 L 22.078125 -25.578125 Z M 22.078125 -20.328125 "/></g></g></g><g fill="#ffffff" fill-opacity="1"><g transform="translate(28.279606, 44.870192)"><g><path d="M 2.546875 -25.546875 L 13.6875 -25.546875 C 16.945312 -25.546875 19.472656 -24.769531 21.265625 -23.21875 C 23.066406 -21.675781 23.96875 -19.484375 23.96875 -16.640625 C 23.96875 -13.648438 23.066406 -11.328125 21.265625 -9.671875 C 19.472656 -8.015625 16.945312 -7.1875 13.6875 -7.1875 L 9.046875 -7.1875 L 9.046875 0 L 2.546875 0 Z M 9.046875 -20.4375 L 9.046875 -12.296875 L 13.359375 -12.296875 C 14.785156 -12.296875 15.890625 -12.644531 16.671875 -13.34375 C 17.453125 -14.050781 17.84375 -15.078125 17.84375 -16.421875 C 17.84375 -17.734375 17.453125 -18.726562 16.671875 -19.40625 C 15.890625 -20.09375 14.785156 -20.4375 13.359375 -20.4375 Z M 9.046875 -20.4375 "/></g></g></g></svg>